<?xml version="1.0" encoding="utf-8"?>
<svg viewBox="12.2743 26.4172 469.244 103.0099" xmlns="http://www.w3.org/2000/svg" xmlns:xlink="http://www.w3.org/1999/xlink">
  <defs>
    <linearGradient gradientUnits="userSpaceOnUse" y2="14.76" x2="111.17" y1="14.76" x1="87.33" id="c212518e-500f-4ca5-a882-199e19cd1ee9_comp-kecsx1ee">
      <stop stop-color="#da0d34" offset="0.18"/>
      <stop stop-color="#f39000" offset="0.97"/>
    </linearGradient>
    <linearGradient y2="1.09" x2="111.17" y1="1.09" x1="87.33" id="455bdd1f-ea81-4b1d-8625-9ac892f836a3_comp-kecsx1ee" xlink:href="#c212518e-500f-4ca5-a882-199e19cd1ee9_comp-kecsx1ee"/>
  </defs>
  <path d="M4.05 22.59a.28.28 0 0 1 0 .09v.75a.28.28 0 0 1 0 .09.46.46 0 0 1 0 .09l-.46.46H1.5a.09.09 0 0 1-.1-.1v-.6a.1.1 0 0 1 .1-.1h1.7a.08.08 0 0 0 .07 0 .09.09 0 0 0 0-.07v-.41a.1.1 0 0 0-.1-.1H1.91l-.46-.46a.29.29 0 0 1 0-.09.29.29 0 0 1 0-.09v-.76a.51.51 0 0 1 0-.09.19.19 0 0 1 0-.08l.46-.46h1.95a.09.09 0 0 1 .06 0 .07.07 0 0 1 0 .06v.62a.09.09 0 0 1 0 .07H2.26a.09.09 0 0 0-.07 0 .07.07 0 0 0 0 .06v.41a.08.08 0 0 0 0 .07h1.37l.44.55Z" style="fill: rgb(255, 255, 255);" transform="matrix(4.267017841339111, 0, 0, 4.267017841339111, 7.196516990661621, 26.421274185180664)"/>
  <path d="M8.9 21.36a.1.1 0 0 1-.1.1h-.78a.08.08 0 0 0 0 .07V24a.09.09 0 0 1 0 .07.09.09 0 0 1-.06 0h-.7a.09.09 0 0 1-.07 0 .08.08 0 0 1 0-.07v-2.45a.09.09 0 0 0 0-.07h-.87a.1.1 0 0 1-.1-.1v-.68c0-.06 0-.09.1-.09H8.8a.09.09 0 0 1 .07 0 .07.07 0 0 1 0 .06Z" style="fill: rgb(255, 255, 255);" transform="matrix(4.267017841339111, 0, 0, 4.267017841339111, 7.196516990661621, 26.421274185180664)"/>
  <path d="M14.15 24a.06.06 0 0 1 0 .06h-.93a.17.17 0 0 1-.06-.06l-.56-1H12v1c0 .07 0 .1-.09.1h-.69a.09.09 0 0 1-.1-.1v-3.3a.07.07 0 0 1 0-.06.09.09 0 0 1 .07 0h2.35l.46.46a.31.31 0 0 0 0 .08.51.51 0 0 1 0 .09v1.09a.31.31 0 0 1 0 .08v.07l-.46.47Zm-1-2.61h-1.21v.85h1.21v-.85Z" style="fill: rgb(255, 255, 255);" transform="matrix(4.267017841339111, 0, 0, 4.267017841339111, 7.196516990661621, 26.421274185180664)"/>
  <path d="M19.15 20.64a.07.07 0 0 1 0 .06v.63a.09.09 0 0 1 0 .07.07.07 0 0 1-.06 0h-1.68v.6h1.43a.09.09 0 0 1 .07 0 .14.14 0 0 1 0 .07v.5a.14.14 0 0 1 0 .07h-1.5v.65h1.68a.09.09 0 0 1 .06 0 .09.09 0 0 1 0 .07V24a.09.09 0 0 1 0 .07.09.09 0 0 1-.06 0H16.6a.09.09 0 0 1-.1-.1V20.7a.07.07 0 0 1 0-.06.09.09 0 0 1 .07 0h2.49a.09.09 0 0 1 .09 0Z" style="fill: rgb(255, 255, 255);" transform="matrix(4.267017841339111, 0, 0, 4.267017841339111, 7.196516990661621, 26.421274185180664)"/>
  <path d="M24.49 20.64V24a.08.08 0 0 1 0 .07.09.09 0 0 1-.07 0h-.8l-.06-.07-1.1-2v2a.09.09 0 0 1-.1.1h-.69c-.06 0-.09 0-.09-.1v-3.3a.08.08 0 0 1 .09-.09h.79a.17.17 0 0 1 .06.06l1.11 2v-2a.07.07 0 0 1 0-.06.09.09 0 0 1 .06 0h.7a.09.09 0 0 1 .1.03Z" style="fill: rgb(255, 255, 255);" transform="matrix(4.267017841339111, 0, 0, 4.267017841339111, 7.196516990661621, 26.421274185180664)"/>
  <path d="M29.81 22.23a.07.07 0 0 1 0 .06v1.14a.28.28 0 0 1 0 .09.46.46 0 0 1 0 .09l-.46.46H27.4l-.46-.46a.46.46 0 0 1 0-.09.28.28 0 0 1 0-.09v-2.15a.34.34 0 0 1 0-.09v-.08l.46-.46h2.15a.09.09 0 0 1 .07 0s0 0 0 .06v.66a.08.08 0 0 1 0 .07.09.09 0 0 1-.07 0h-1.74a.09.09 0 0 0 0 .07v1.62a.09.09 0 0 0 0 .07h1.13a.09.09 0 0 0 0-.07v-.94a.09.09 0 0 1 .07 0h.7a.09.09 0 0 1 .1.04Z" style="fill: rgb(255, 255, 255);" transform="matrix(4.267017841339111, 0, 0, 4.267017841339111, 7.196516990661621, 26.421274185180664)"/>
  <path d="M34.67 21.36a.09.09 0 0 1 0 .07.09.09 0 0 1-.06 0h-.78a.09.09 0 0 0 0 .07V24a.14.14 0 0 1 0 .07.09.09 0 0 1-.07 0H33a.1.1 0 0 1-.1-.1v-2.42a.14.14 0 0 0 0-.07h-.78a.09.09 0 0 1-.07 0 .08.08 0 0 1 0-.07v-.71a.08.08 0 0 1 .09-.09h2.49a.09.09 0 0 1 .06 0 .07.07 0 0 1 0 .06Z" style="fill: rgb(255, 255, 255);" transform="matrix(4.267017841339111, 0, 0, 4.267017841339111, 7.196516990661621, 26.421274185180664)"/>
  <path d="M39.71 20.61a.09.09 0 0 1 .07 0 .07.07 0 0 1 0 .06V24a.1.1 0 0 1-.1.1H39a.1.1 0 0 1-.1-.1v-1.14a.08.08 0 0 0 0-.07h-1.12a.09.09 0 0 0 0 .07V24c0 .07 0 .1-.09.1H37c-.06 0-.09 0-.09-.1v-3.3a.08.08 0 0 1 .09-.09h.7a.08.08 0 0 1 .09.09v1.12c0 .07 0 .1.09.1h1a.09.09 0 0 0 .06 0 .08.08 0 0 0 0-.07V20.7a.07.07 0 0 1 0-.06.09.09 0 0 1 .07 0Z" style="fill: rgb(255, 255, 255);" transform="matrix(4.267017841339111, 0, 0, 4.267017841339111, 7.196516990661621, 26.421274185180664)"/>
  <path d="M48.33 22a.09.09 0 0 1 .07 0 .07.07 0 0 1 0 .06v.55a.07.07 0 0 1-.09.09h-.08a.09.09 0 0 0-.06 0 .09.09 0 0 0 0 .07v.61a.28.28 0 0 1 0 .09.51.51 0 0 0 0 .09l-.46.46h-1.73l-.46-.46a.2.2 0 0 1 0-.09.29.29 0 0 1 0-.09v-.59a.31.31 0 0 1 0-.08.29.29 0 0 1 0-.08l.06-.07.06-.08v-.05a.1.1 0 0 0 0-.07v-.07l-.08-.1-.02-.19a.2.2 0 0 1 0-.08.29.29 0 0 1 0-.09v-.55a.29.29 0 0 1 0-.09.2.2 0 0 1 0-.09l.46-.46h2.09a.06.06 0 0 1 .06 0 .07.07 0 0 1 0 .06v.58a.11.11 0 0 1-.09.09h-1.65a.09.09 0 0 0-.07 0 .07.07 0 0 0 0 .06v.44a.09.09 0 0 0 0 .07.08.08 0 0 0 .07 0Zm-2 .67v.68h1.07v-.68Z" style="fill: rgb(255, 255, 255);" transform="matrix(4.267017841339111, 0, 0, 4.267017841339111, 7.196516990661621, 26.421274185180664)"/>
  <path d="M54.91 21.48a.09.09 0 0 0 0 .07v1.62a.09.09 0 0 0 0 .07h1.68a.11.11 0 0 1 .09.09V24a.09.09 0 0 1 0 .07.09.09 0 0 1-.06 0h-2.09l-.53-.46v-2.5l.46-.46h2.08a.09.09 0 0 1 .06 0 .07.07 0 0 1 0 .06v.66a.09.09 0 0 1 0 .07.09.09 0 0 1-.06 0H55Z" style="fill: rgb(255, 255, 255);" transform="matrix(4.267017841339111, 0, 0, 4.267017841339111, 7.196516990661621, 26.421274185180664)"/>
  <path d="M62 21.11v.08a.34.34 0 0 1 0 .09v2.15a.28.28 0 0 1 0 .09v.09l-.46.46h-1.97l-.46-.46a.12.12 0 0 1 0-.09.28.28 0 0 1 0-.09v-2.15a.34.34 0 0 1 0-.09.11.11 0 0 1 0-.08l.46-.46h1.93Zm-.84.35H60v1.8h1.17Z" style="fill: rgb(255, 255, 255);" transform="matrix(4.267017841339111, 0, 0, 4.267017841339111, 7.196516990661621, 26.421274185180664)"/>
  <path d="M67.3 20.64a.07.07 0 0 1 0 .06V24a.09.09 0 0 1 0 .07.09.09 0 0 1-.06 0h-.81l-.05-.07-1.11-2v2c0 .07 0 .1-.1.1h-.68c-.07 0-.1 0-.1-.1v-3.3c0-.06 0-.09.1-.09h.79l.06.06 1.11 2v-2.06a.09.09 0 0 1 .07 0h.7a.09.09 0 0 1 .08.03Z" style="fill: rgb(255, 255, 255);" transform="matrix(4.267017841339111, 0, 0, 4.267017841339111, 7.196516990661621, 26.421274185180664)"/>
  <path d="M72.63 21.11a.31.31 0 0 0 0 .08.51.51 0 0 1 0 .09v2.15a.29.29 0 0 1 0 .09.51.51 0 0 0 0 .09l-.46.46h-2.35a.09.09 0 0 1-.1-.1V20.7a.07.07 0 0 1 0-.06.09.09 0 0 1 .07 0h2.35Zm-1.63.35h-.4v1.8h1.18v-1.8H71Z" style="fill: rgb(255, 255, 255);" transform="matrix(4.267017841339111, 0, 0, 4.267017841339111, 7.196516990661621, 26.421274185180664)"/>
  <path d="M75.93 24c0 .07 0 .1-.09.1h-.7c-.06 0-.09 0-.09-.1v-3.3a.08.08 0 0 1 .09-.09h.7a.08.08 0 0 1 .09.09Z" style="fill: rgb(255, 255, 255);" transform="matrix(4.267017841339111, 0, 0, 4.267017841339111, 7.196516990661621, 26.421274185180664)"/>
  <path d="M80.79 21.36a.1.1 0 0 1-.1.1h-.75a.09.09 0 0 0 0 .07V24a.14.14 0 0 1 0 .07.09.09 0 0 1-.07 0h-.7a.09.09 0 0 1-.06 0A.09.09 0 0 1 79 24v-2.45a.09.09 0 0 0 0-.07h-.77a.09.09 0 0 1-.07 0 .08.08 0 0 1 0-.07v-.71a.08.08 0 0 1 .09-.09h2.48a.09.09 0 0 1 .07 0 .07.07 0 0 1 0 .06Z" style="fill: rgb(255, 255, 255);" transform="matrix(4.267017841339111, 0, 0, 4.267017841339111, 7.196516990661621, 26.421274185180664)"/>
  <path d="M83.87 24c0 .07 0 .1-.1.1h-.68c-.07 0-.1 0-.1-.1v-3.3c0-.06 0-.09.1-.09h.68c.07 0 .1 0 .1.09Z" style="fill: rgb(255, 255, 255);" transform="matrix(4.267017841339111, 0, 0, 4.267017841339111, 7.196516990661621, 26.421274185180664)"/>
  <path d="M89.14 21.11v.08a.34.34 0 0 1 0 .09v2.15a.28.28 0 0 1 0 .09.46.46 0 0 1 0 .09l-.46.46h-1.93l-.46-.46a.19.19 0 0 1 0-.09v-2.33a.2.2 0 0 1 0-.08l.46-.46h1.93Zm-.84.35h-1.17v1.8h1.17Z" style="fill: rgb(255, 255, 255);" transform="matrix(4.267017841339111, 0, 0, 4.267017841339111, 7.196516990661621, 26.421274185180664)"/>
  <path d="M94.48 20.64a.07.07 0 0 1 0 .06V24a.09.09 0 0 1 0 .07h-.87l-.06-.07-1.1-2v2c0 .07 0 .1-.1.1h-.68c-.07 0-.1 0-.1-.1v-3.3c0-.06 0-.09.1-.09h.79l.05.06 1.12 2v-2.06a.09.09 0 0 1 .07 0h.7Z" style="fill: rgb(255, 255, 255);" transform="matrix(4.267017841339111, 0, 0, 4.267017841339111, 7.196516990661621, 26.421274185180664)"/>
  <path d="M97.78 24c0 .07 0 .1-.09.1H97a.09.09 0 0 1-.1-.1v-3.3c0-.06 0-.09.1-.09h.69a.08.08 0 0 1 .09.09Z" style="fill: rgb(255, 255, 255);" transform="matrix(4.267017841339111, 0, 0, 4.267017841339111, 7.196516990661621, 26.421274185180664)"/>
  <path d="M103.08 20.64a.07.07 0 0 1 0 .06V24a.1.1 0 0 1-.1.1h-.8l-.06-.06-1.1-2v2c0 .07 0 .1-.09.1h-.7c-.06 0-.09 0-.09-.1V20.7a.08.08 0 0 1 .09-.09h.85l.07.06 1.1 2v-2a.07.07 0 0 1 0-.06.09.09 0 0 1 .07 0h.68a.09.09 0 0 1 .08.03Z" style="fill: rgb(255, 255, 255);" transform="matrix(4.267017841339111, 0, 0, 4.267017841339111, 7.196516990661621, 26.421274185180664)"/>
  <path d="M108.41 22.23v1.2a.28.28 0 0 1 0 .09.46.46 0 0 1 0 .09l-.46.46h-1.93l-.46-.46a.19.19 0 0 1 0-.09v-2.33a.2.2 0 0 1 0-.08l.46-.46h2.14a.09.09 0 0 1 .07 0 .07.07 0 0 1 0 .06v.66a.1.1 0 0 1-.1.1h-1.74a.08.08 0 0 0 0 .07v1.62a.08.08 0 0 0 0 .07h1.07a.08.08 0 0 0 .06 0 .09.09 0 0 0 0-.07v-.88a.07.07 0 0 1 0-.06.09.09 0 0 1 .06 0h.7a.09.09 0 0 1 .13.01Z" style="fill: rgb(255, 255, 255);" transform="matrix(4.267017841339111, 0, 0, 4.267017841339111, 7.196516990661621, 26.421274185180664)"/>
  <path d="M1.19 0h5.06v12.19h4.11v4.06H1.19Z" style="fill: rgb(255, 255, 255);" transform="matrix(4.267017841339111, 0, 0, 4.267017841339111, 7.196516990661621, 26.421274185180664)"/>
  <path d="M11.63 16.25V0h10.86v2l-.81 2.07h-5V5.9h5V10h-5v2.23h5.8v4.06Z" style="fill: rgb(255, 255, 255);" transform="matrix(4.267017841339111, 0, 0, 4.267017841339111, 7.196516990661621, 26.421274185180664)"/>
  <path d="M23.19 4.09V0h11.37v2l-.81 2.07h-2.44v12.18h-5.08V4.09Z" style="fill: rgb(255, 255, 255);" transform="matrix(4.267017841339111, 0, 0, 4.267017841339111, 7.196516990661621, 26.421274185180664)"/>
  <path d="M35.46 0h2.81v3.34l-1 2.49h-1.81V0" style="fill: rgb(255, 255, 255);" transform="matrix(4.267017841339111, 0, 0, 4.267017841339111, 7.196516990661621, 26.421274185180664)"/>
  <path d="M38.94 5.43V2a2 2 0 0 1 2-2h8.86v2L49 4.09h-5v.74l4.41 2.94a2.79 2.79 0 0 1 1.37 2.77v3.69a1.94 1.94 0 0 1-2 2h-8.84v-4.04h5.78v-1.07l-4.41-2.93a2.8 2.8 0 0 1-1.37-2.76Z" style="fill: rgb(255, 255, 255);" transform="matrix(4.267017841339111, 0, 0, 4.267017841339111, 7.196516990661621, 26.421274185180664)"/>
  <path d="M68.16 0v2l-.81 2.07h-6.2v8.1h2V6.73h5.08v9.52H58.11a1.94 1.94 0 0 1-2-2V2a1.94 1.94 0 0 1 2-2Z" style="fill: rgb(255, 255, 255);" transform="matrix(4.267017841339111, 0, 0, 4.267017841339111, 7.196516990661621, 26.421274185180664)"/>
  <path d="M72.15 16.25a2 2 0 0 1-2-2V2a2 2 0 0 1 2-2h8.1a1.94 1.94 0 0 1 2 2v12.23a1.94 1.94 0 0 1-2 2Zm3-12.16v8.1h2v-8.1Z" style="fill: rgb(255, 255, 255);" transform="matrix(4.267017841339111, 0, 0, 4.267017841339111, 7.196516990661621, 26.421274185180664)"/>
  <path d="M94.4 4v1L94 6h-3v4h1V7.25h2.48v4.64h-5a.94.94 0 0 1-1-1V5a.94.94 0 0 1 1-1Z" style="fill: rgb(255, 255, 255);" transform="matrix(4.267017841339111, 0, 0, 4.267017841339111, 7.196516990661621, 26.421274185180664)"/>
  <path d="M95 5V4h2.5l.6 3h.18l.61-3h2.47v1l-1.94 4.72v2.17H97V9.72Z" style="fill: rgb(255, 255, 255);" transform="matrix(4.267017841339111, 0, 0, 4.267017841339111, 7.196516990661621, 26.421274185180664)"/>
  <path d="M104.08 8.08h-.19v3.81h-2.42v-1l.81-6.89h2.77l.6 3.13h.17l.6-3.13h2.77l.8 6.94v1h-2.41V8.08h-.2l-.61 3.81h-2.07Z" style="fill: rgb(255, 255, 255);" transform="matrix(4.267017841339111, 0, 0, 4.267017841339111, 7.196516990661621, 26.421274185180664)"/>
  <path fill="url(#c212518e-500f-4ca5-a882-199e19cd1ee9_comp-kecsx1ee)" d="M111.16 13.66v2.19H87.33v-2.19h23.83z" transform="matrix(4.267017841339111, 0, 0, 4.267017841339111, 7.196516990661621, 26.421274185180664)"/>
  <path fill="url(#455bdd1f-ea81-4b1d-8625-9ac892f836a3_comp-kecsx1ee)" d="M111.16 0v2.19H87.33V0h23.83z" transform="matrix(4.267017841339111, 0, 0, 4.267017841339111, 7.196516990661621, 26.421274185180664)"/>
</svg>